<?xml version="1.0" encoding="utf-8"?>
<!-- Generator: Adobe Illustrator 25.0.1, SVG Export Plug-In . SVG Version: 6.00 Build 0)  -->
<svg version="1.1" xmlns="http://www.w3.org/2000/svg" xmlns:xlink="http://www.w3.org/1999/xlink" x="0px" y="0px"
	 viewBox="0 0 650 500" style="enable-background:new 0 0 650 500;" xml:space="preserve">
<style type="text/css">
	.st0{fill:#0B0E11;}
	.st1{fill:#E3EFFF;}
	.st2{fill:#6D89C9;}
	.st3{fill:#5872B4;}
	.st4{fill:#BED1F9;}
	.st5{fill:#A1BAF0;}
	.st6{fill:#DDE8FA;}
	.st7{fill:#5672B3;}
	.st8{fill:#486096;}
	.st9{fill:#FFBA53;}
	.st10{fill:#FFD353;}
	.st11{fill:#B1C9F1;}
	.st12{fill:#FFFFFF;}
	.st13{fill:#E3EDF7;}
	.st14{fill:#A7BDE3;}
	.st15{fill:#BED1F1;}
	.st16{fill:#C9D9F5;}
	.st17{fill:#FFE692;}
	.st18{fill:#EE9F53;}
	.st19{fill:#E38F6F;}
	.st20{fill:#5A4868;}
	.st21{fill:#58B9D6;}
	.st22{fill:#B7E6F1;}
	.st23{fill:#4E4C71;}
	.st24{fill:#C8776F;}
	.st25{fill:#59A5CE;}
	.st26{fill:#383752;}
	.st27{fill:#18D5E4;}
	.st28{fill:#D7EAFF;}
	.st29{fill:#CEE1F5;}
	.st30{fill:#B9D3F0;}
	.st31{fill:#FFF3D3;}
	.st32{fill:#FC736B;}
	.st33{fill:#D5616B;}
	.st34{fill:#75ADD3;}
	.st35{fill:#608EAD;}
	.st36{fill:#18BFD5;}
	.st37{fill:#E9F3FF;}
	.st38{fill:#18BCD8;}
	.st39{fill:#18B0D8;}
	.st40{fill:#556A9C;}
	.st41{fill:#3D4C70;}
	.st42{font-family:'Montserrat-ExtraBold';}
	.st43{font-size:18.171px;}
</style>
<g id="BACKGROUND">
	<rect class="st0" width="650" height="500"/>
</g>
<g id="OBJECTS">
	<g>
		<path class="st1" d="M57.58,363.05c7.01,7.57,14.58,14.39,22.61,20.58c2.36,1.82,13.36,0,16.18,0c37.65,0,75.31,0,112.96,0
			c54.74,0,109.48,0,164.22,0c49.31,0,98.62,0,147.92,0c15.58,0,31.16,0,46.74,0c3.99,0,11.5,1.38,15.2-0.23
			c7.8-3.4,4.24-18.97,3.53-26.07c-1.1-11.01-3.68-22.02-9.57-31.51c-16.09-25.92-44.23-35.18-66.38-54.36
			c-21.64-18.75-36.65-43.79-54.44-66.23c-13.89-17.52-29.61-33.59-46.82-47.85c-10.97-9.09-22.84-17.6-36.49-21.69
			c-11.94-3.57-24.69-3.58-37.08-2.16c-36.3,4.16-71.08,20.61-97.3,46.05c-29.61,28.71-54.19,71.32-93.26,88.12
			c-21.4,9.2-45.54,10.43-66.99,19.51c-21.45,9.08-41,31.06-34.98,53.57C45.91,349.33,51.56,356.55,57.58,363.05z"/>
		<path class="st1" d="M568.69,292.97c4.14,0.69,8.57,0.67,12.32-1.21c1.88-0.95,3.65-2.57,3.83-4.66c0.08-0.94-0.17-1.88-0.48-2.77
			c-2.58-7.51-9.03-12.97-15.46-17.64c-4.8-3.49-10.03-6.87-15.93-7.42c-12.46-1.17-16.09,8.67-9.68,17.64
			C549.26,285.25,558.54,291.27,568.69,292.97z"/>
		<g>
			<path class="st2" d="M218.49,227.39c-36.8-9.35-47.14-28.78-47.14-28.78h-4.25h-33.96h-13.48c0,0-10.34,19.44-47.14,28.78
				c0,0-24.39,96.97,69.61,155.62h6.76C242.88,324.36,218.49,227.39,218.49,227.39z"/>
			<path class="st3" d="M206.91,237.45c-30.96-7.86-39.66-24.22-39.66-24.22h-3.58H135.1h-11.34c0,0-8.7,16.35-39.66,24.22
				c0,0-20.52,81.58,58.56,130.92h5.69C227.43,319.04,206.91,237.45,206.91,237.45z"/>
			<path class="st4" d="M201.94,241.77c-28.45-7.23-36.45-22.26-36.45-22.26h-3.29h-26.26h-10.42c0,0-8,15.03-36.45,22.26
				c0,0-18.86,74.98,53.83,120.33h5.23C220.8,316.75,201.94,241.77,201.94,241.77z"/>
			
				<ellipse transform="matrix(0.2269 -0.9739 0.9739 0.2269 -163.6472 360.924)" class="st5" cx="145.5" cy="283.53" rx="48.94" ry="48.94"/>
			
				<ellipse transform="matrix(0.9925 -0.1222 0.1222 0.9925 -33.5529 19.9023)" class="st6" cx="145.5" cy="283.53" rx="41.22" ry="41.22"/>
			<polygon class="st2" points="125.48,286.18 143.23,297.12 165.8,258.33 169.86,261.06 146.42,308.74 121.15,294.85 			"/>
		</g>
		<g>
			<g>
				<polygon class="st2" points="532.23,221.2 540.75,217.71 543.04,210.48 538.09,202.72 546.61,199.23 548.9,191.99 
					543.95,184.24 552.46,180.75 556.09,169.29 553.44,148.15 540.23,143.96 526.51,159.92 483.36,296.12 512.94,305.49 
					537.19,228.96 				"/>
				<path class="st7" d="M488.51,279.88l-5.14,16.23l29.58,9.37l5.64-17.79c-8.63-4.98-18.63-7.84-29.31-7.84
					C489.01,279.86,488.76,279.88,488.51,279.88z"/>
				
					<rect x="443.35" y="228.59" transform="matrix(0.302 -0.9533 0.9533 0.302 140.0365 652.4067)" class="st7" width="144.41" height="3.96"/>
				<path class="st8" d="M495.63,300l5.96-18.82c-1.3-0.28-2.61-0.51-3.93-0.71l-5.81,18.33L495.63,300z"/>
			</g>
			<path class="st4" d="M489.27,286.56c-28.52,0-51.64,23.12-51.64,51.64c0,19.51,10.82,36.48,26.78,45.27h49.73
				c15.96-8.79,26.78-25.76,26.78-45.27C540.91,309.68,517.79,286.56,489.27,286.56z M489.27,365.77
				c-15.22,0-27.56-12.34-27.56-27.56c0-15.22,12.34-27.56,27.56-27.56c15.22,0,27.56,12.34,27.56,27.56
				C516.83,353.43,504.49,365.77,489.27,365.77z"/>
			<path class="st5" d="M489.27,381.4c23.86,0,43.2-19.34,43.2-43.2c0-23.86-19.34-43.2-43.2-43.2c-23.86,0-43.2,19.34-43.2,43.2
				C446.07,362.06,465.41,381.4,489.27,381.4z M489.27,308.09c16.63,0,30.11,13.48,30.11,30.11c0,16.63-13.48,30.11-30.11,30.11
				c-16.63,0-30.11-13.48-30.11-30.11C459.16,321.57,472.64,308.09,489.27,308.09z"/>
			<path class="st2" d="M489.27,377.74c21.84,0,39.54-17.7,39.54-39.54s-17.7-39.54-39.54-39.54c-21.84,0-39.54,17.7-39.54,39.54
				S467.43,377.74,489.27,377.74z M489.27,310.64c15.22,0,27.56,12.34,27.56,27.56c0,15.22-12.34,27.56-27.56,27.56
				c-15.22,0-27.56-12.34-27.56-27.56C461.71,322.98,474.05,310.64,489.27,310.64z"/>
		</g>
		<g>
			<path class="st4" d="M598.41,336.25c0-0.62-0.04-1.23-0.09-1.84l5.88-2.83l-2.45-7.54l-6.43,1.16c-0.64-1.05-1.35-2.04-2.15-2.97
				l3.09-5.75l-6.42-4.66l-4.5,4.7c-1.12-0.47-2.3-0.84-3.5-1.12l-0.88-6.47h-7.93l-0.88,6.47c-1.21,0.28-2.38,0.64-3.5,1.12
				l-4.5-4.7l-6.42,4.66l3.09,5.75c-0.8,0.92-1.52,1.92-2.15,2.97l-6.43-1.16l-2.45,7.54l5.88,2.83c-0.05,0.61-0.09,1.22-0.09,1.84
				c0,0.62,0.04,1.23,0.09,1.84l-5.88,2.83l2.45,7.54l6.43-1.16c0.64,1.05,1.35,2.04,2.15,2.97l-3.09,5.75l6.42,4.66l4.5-4.7
				c1.12,0.47,2.3,0.84,3.5,1.12l0.88,6.47h7.93l0.88-6.47c1.21-0.28,2.38-0.64,3.5-1.12l4.5,4.7l6.42-4.66l-3.09-5.75
				c0.8-0.92,1.52-1.92,2.15-2.97l6.43,1.16l2.45-7.54l-5.88-2.83C598.37,337.48,598.41,336.87,598.41,336.25z M576.99,348.22
				c-6.61,0-11.97-5.36-11.97-11.97c0-6.61,5.36-11.97,11.97-11.97c6.61,0,11.97,5.36,11.97,11.97
				C588.96,342.86,583.6,348.22,576.99,348.22z"/>
			<path class="st5" d="M576.99,353.75c9.66,0,17.5-7.83,17.5-17.5c0-9.66-7.83-17.5-17.5-17.5c-9.66,0-17.5,7.83-17.5,17.5
				C559.5,345.91,567.33,353.75,576.99,353.75z M576.99,324.28c6.61,0,11.97,5.36,11.97,11.97c0,6.61-5.36,11.97-11.97,11.97
				c-6.61,0-11.97-5.36-11.97-11.97C565.03,329.64,570.39,324.28,576.99,324.28z"/>
		</g>
		<g>
			<rect x="522.1" y="259.72" class="st9" width="45.25" height="8.69"/>
			<rect x="519.52" y="242.35" class="st9" width="45.25" height="8.69"/>
			<rect x="523.7" y="233.66" class="st10" width="45.25" height="8.69"/>
			<rect x="514.98" y="251.03" class="st10" width="45.25" height="8.69"/>
		</g>
		<g>
			<path class="st2" d="M419.2,160.99l-38.17-9.38c-2.09-0.51-3.37-2.63-2.86-4.72l5.14-20.93c0.51-2.09,2.63-3.37,4.72-2.86
				l38.17,9.38c2.09,0.51,3.37,2.63,2.86,4.72l-5.14,20.93C423.4,160.22,421.29,161.5,419.2,160.99z"/>
			<circle class="st11" cx="403.62" cy="142.04" r="13.32"/>
			<path class="st12" d="M396.39,146.55l2.85-11.58c0.25-1,1.45-1.4,2.24-0.75l10.55,8.63c0.9,0.74,0.56,2.2-0.58,2.45l-13.4,2.95
				C397.04,148.48,396.15,147.56,396.39,146.55z"/>
		</g>
		<path class="st11" d="M367.24,142.6l-20.22-4.97c-1.05-0.26-1.7-1.32-1.44-2.37l2.78-11.33c0.26-1.05,1.32-1.7,2.37-1.44
			l20.22,4.97c1.05,0.26,1.7,1.32,1.44,2.37l-2.78,11.33C369.35,142.22,368.29,142.86,367.24,142.6z"/>
		<path class="st4" d="M419.05,117.89l-16.6-4.08c-1.05-0.26-1.7-1.32-1.44-2.37l2.22-9.04c0.26-1.05,1.32-1.7,2.37-1.44l16.6,4.08
			c1.05,0.26,1.7,1.32,1.44,2.37l-2.22,9.04C421.17,117.5,420.1,118.15,419.05,117.89z"/>
		<g>
			<path class="st2" d="M381.78,265.94l-93.49-22.98c-3.12-0.77-5.03-3.92-4.26-7.04l21.12-85.93c0.77-3.12,3.92-5.03,7.04-4.26
				l93.49,22.98c3.12,0.77,5.03,3.92,4.26,7.04l-21.12,85.93C388.05,264.8,384.9,266.71,381.78,265.94z"/>
			<path class="st7" d="M379.9,261.67l-87.97-21.62c-2.51-0.62-4.04-3.15-3.42-5.65l19.9-80.97c0.62-2.51,3.15-4.04,5.65-3.42
				l87.97,21.62c2.51,0.62,4.04,3.15,3.42,5.65l-19.9,80.97C384.94,260.75,382.41,262.28,379.9,261.67z"/>
			<path class="st13" d="M378.33,259.27l-83.89-20.62c-2.51-0.62-4.04-3.15-3.42-5.65l18.97-77.18c0.62-2.51,3.15-4.04,5.65-3.42
				l83.89,20.62c2.51,0.62,4.04,3.15,3.42,5.65l-18.97,77.18C383.36,258.35,380.83,259.89,378.33,259.27z"/>
			<path class="st12" d="M391.45,188.73c0,6.34-5.14,11.48-11.48,11.48c-6.34,0-11.48-5.14-11.48-11.48
				c0-6.34,5.14-11.48,11.48-11.48C386.31,177.25,391.45,182.39,391.45,188.73z"/>
			<path class="st14" d="M332.99,188.08c-9.52-3.68-36.33,20.31-36.33,20.31v0l-5.76,23.45c-0.59,2.42,0.88,4.86,3.3,5.45
				l60.35,14.83l9.51-5.05l-15.91-24.04C348.15,223.04,340.43,190.96,332.99,188.08z"/>
			<path class="st11" d="M369.06,208.73c-8.49,0.41-41.34,25.17-49.58,36.08l59.37,14.59c2.22,0.55,4.46-0.81,5-3.03l7.01-28.53
				C386,221.2,375.75,208.4,369.06,208.73z"/>
			<path class="st15" d="M305.46,241.36c0,0,30.52-28.44,39.34-30.52c8.82-2.07,22.36,45.68,22.36,45.68L305.46,241.36z"/>
			<path class="st16" d="M317,208.73c-1.83-1.34-12.62,5.93-23.45,13.95L291.01,233c-0.62,2.51,0.92,5.04,3.42,5.65l29.94,7.36l0,0
				C324.38,246.01,320.87,211.55,317,208.73z"/>
			<path class="st16" d="M379.29,231.89c-4.72-0.45-33.27,19.44-33.27,19.44l0,0l32.31,7.94c2.51,0.62,5.04-0.92,5.65-3.42
				l3.45-14.02C385,236.72,382.6,232.21,379.29,231.89z"/>
		</g>
		<g>
			<circle class="st10" cx="249.3" cy="191.48" r="59.29"/>
			<path class="st17" d="M307.83,200.99l-46.3-9.84l45.9-11.44c-0.36-1.81-0.82-3.59-1.34-5.33l-45.89,11.44l36.19-30.37
				c-1.12-1.46-2.3-2.86-3.54-4.21l-36.18,30.36l19.2-43.13c-1.63-0.82-3.31-1.56-5.03-2.23l-18.79,42.19v-46.17
				c-0.91-0.04-1.83-0.07-2.75-0.07s-1.84,0.03-2.75,0.07v47.2l-20.7-42.44c-1.69,0.73-3.34,1.53-4.95,2.41l20.7,42.45l-37.22-29.08
				c-1.2,1.39-2.33,2.83-3.4,4.33l37.23,29.08l-46.27-9.83c-0.46,1.76-0.84,3.56-1.14,5.38l46.26,9.83l-45.94,11.45
				c0.36,1.81,0.8,3.59,1.32,5.34l45.95-11.46l-36.3,30.46c1.11,1.46,2.29,2.87,3.53,4.22l36.31-30.46l-19.29,43.32
				c1.63,0.82,3.31,1.57,5.02,2.24l18.87-42.39v46.41c0.91,0.04,1.83,0.07,2.75,0.07s1.84-0.03,2.75-0.07v-47.43l20.79,42.63
				c1.69-0.73,3.34-1.53,4.94-2.41l-20.79-42.63l37.34,29.17c1.19-1.39,2.32-2.84,3.38-4.34l-37.33-29.17l46.33,9.85
				C307.16,204.61,307.53,202.81,307.83,200.99z"/>
			<circle class="st18" cx="249.3" cy="191.48" r="49.89"/>
			
				<ellipse transform="matrix(0.9282 -0.372 0.372 0.9282 -53.3375 106.4828)" class="st9" cx="249.3" cy="191.48" rx="46.74" ry="46.74"/>
		</g>
		<polygon class="st19" points="427.27,362.19 425.35,376.78 417.62,376.22 418.82,361.71 		"/>
		<path class="st20" d="M436.7,178.29c-1.65-2.49-2.14-5.71-1.31-8.57c0.83-2.86,2.96-5.32,5.68-6.55c1.27-0.57,2.73-0.88,4.04-0.41
			c1.18,0.42,2.08,1.4,3.22,1.93c1.89,0.87,4.24,0.42,6,1.53c1.36,0.86,2.04,2.47,2.4,4.04c0.36,1.57,0.48,3.2,1.1,4.68
			c0.81,1.95,2.41,3.46,4.03,4.82c0.74,0.62,1.5,1.23,2.05,2.03c0.91,1.34,1.09,3.16,0.44,4.65c-1.17,2.69-1.13,5.77-0.57,8.66
			c1.04,5.37,3.12,10.48,5.18,15.54c0.61,1.5,0.8,3.02,0.98,4.63c0.1,0.92,0.09,1.98-0.59,2.61c-0.64,0.59-1.67,0.59-2.33,1.15
			c-0.83,0.71-0.77,1.98-1.01,3.05c-0.36,1.58-1.56,2.94-3.09,3.48c-1.53,0.54-3.32,0.25-4.59-0.75c-1.69-1.33-2.29-3.58-2.88-5.65
			c-1.51-5.32-3.57-10.46-5.63-15.59c-1.62-4.04-2.42-8.44-3.62-12.63c-0.74-2.59-1.5-5.21-2.91-7.5
			C441.88,181.14,439.33,178.86,436.7,178.29z"/>
		<polygon class="st19" points="502.55,299.55 517.23,299.63 517.2,307.38 502.65,307.17 		"/>
		<path class="st21" d="M525.87,327.88l-2.1-30.69c0,0-2.69-0.85-5.49,0.37c-2.79,1.23-4.17,1-3.73,2.73c0.44,1.73,2.29,2,1.6,3.57
			c-0.69,1.57-1.33,2.81-0.68,4.04c0.64,1.23,3.31,2.6,4.82,7.82c1.7,5.88,2.36,8.52,2.59,9.49
			C523.56,328.03,525.87,327.88,525.87,327.88z"/>
		<path class="st22" d="M523.37,326.39c0.93,1.57,2.5,1.49,2.5,1.49l-2.1-30.69c0,0-1-0.31-2.42-0.28L523.37,326.39z"/>
		<path class="st23" d="M457.07,240.02c0,0,3.23,7.66,0,27.26c-2.55,15.46,0,32.52,0,32.52s38.41-2.71,50.85-0.8v9.76
			c0,0-31.72,1.71-42.08,2.19c-10.36,0.48-17.21,0.16-19.29-4.46c-2.07-4.62-4.46-26.78-4.46-26.78s-4.14,12.11-5.58,15.78
			c-1.43,3.67-1.43,3.35-1.59,4.46c-0.16,1.12,1.12,18.01-3.19,41.28c-4.3,23.27-3.98,26.3-3.98,26.3s-7.17,1.59-10.84-1.59
			c0,0,3.03-45.43,4.46-56.9c1.43-11.48,3.51-30.92,5.26-39.37c1.75-8.45,3.96-28.69,3.89-30.6
			C430.45,237.15,457.07,240.02,457.07,240.02z"/>
		<path class="st21" d="M446.74,188.95c0,0,9.85,6.83,12.24,10.54c2.39,3.71,1.67,8.19,0.3,13.45c-1.37,5.26-1.73,18.83-1.49,23.37
			c0.24,4.54,0.24,4.54,0.24,4.54s0.17,0.48-5.53,1.32c-5.7,0.84-10.13-1.55-13.35-1.32c-3.23,0.24-10.16-0.24-10.16-0.24
			s0.72-10.88,0-11.36c-0.72-0.48-14.35,1.08-25.94-1.55l0.96-5.98c0,0,10.64,0.84,14.35,0.24c3.71-0.6,11.12-1.2,11.12-1.2
			s-0.36-3.83-0.6-6.69c-0.24-2.87,0.12-8.37,0.12-8.37s-9.2,8.25-11.48,9.09c-2.27,0.84-17.01-0.67-17.01-0.67l1.47-5.97
			c0,0,8.73-0.42,12.44-0.78c0,0,11.12-11.52,14.23-13.2c3.11-1.67,11.48-5.23,11.48-5.23H446.74z"/>
		<path class="st24" d="M447.05,182.77c0,0-0.5,5.55-0.44,5.96c0.06,0.42,1.43,1.02,1.37,1.97c-0.06,0.96-3.17,8.73-6.4,7.83
			c-3.23-0.9-3.95-7.83-3.17-8.73c0.78-0.9,1.61-1.55,1.43-5.08C439.68,181.2,447.05,182.77,447.05,182.77z"/>
		<path class="st19" d="M436.63,176.7c0,0-0.12,8.17,4.58,9.56c4.7,1.39,7.65-7.17,7.85-7.77c0.2-0.6,0.52,0.32,1.39-1.08
			c0.88-1.39,0.6-3.87-0.24-3.95c-0.84-0.08-1.51-0.12-1.83,1.08c-0.32,1.2-0.36,3.55-1.16,3.19c-0.8-0.36-0.48-3.95-0.76-4.1
			c-0.82-0.47-1.93,0-2.8-0.35c-0.51-0.2-0.88-0.69-1.41-0.8c-0.64-0.14-1.26,0.29-1.87,0.52c-0.97,0.36-2.11,0.21-2.94-0.39
			c-0.36,0.33-0.48,0.84-0.56,1.32C436.72,174.85,436.72,175.75,436.63,176.7z"/>
		<path class="st25" d="M447.99,226.75c-5.02,1.79-20.09,2.41-20.09,2.41l0,0c0.58,0,0.98,0.03,1.08,0.1
			c0.36,0.24,0.36,3.02,0.27,5.77c5.47-1.59,14.23-3.88,18.74-5.87c6.54-2.89,11.12-18.79,11.12-18.79S453.01,224.95,447.99,226.75z
			"/>
		<path class="st25" d="M439.22,217.54c-1.47,0.51-6.53,0.56-10.01,0.54c0.14,1.53,0.25,2.69,0.25,2.69s7.89-1.05,11.12-1.01
			c0,0,6.46-6.17,9.8-14.54C450.38,205.23,441.53,216.74,439.22,217.54z"/>
		<path class="st26" d="M438.58,257.07c0,0,2.23,23.91-2.07,38.41c1.43-3.67,5.58-15.78,5.58-15.78S442.25,266.79,438.58,257.07z"/>
		<path class="st19" d="M403.99,221.72c0,0-2.91-0.96-3.27-1.55c-0.36-0.6-1.13-2.4-1.13-2.4l-0.53,2.17c0,0-2.48-0.48-5.67-1.64
			c-3.19-1.16-5.3-2.63-5.94-2.65c-0.64-0.02-1.08,0.66-0.96,1.09c0.12,0.44,0.12,0.44,0.12,0.44s-2.44-1.36-3.01-1.04
			c-0.57,0.32-0.81,0.8-0.45,1.28c0.36,0.48,6.89,3.67,7.29,3.83c0.4,0.16-6.57-2.43-7.17-2.27c-0.6,0.16-1.02,1.04-0.29,1.39
			c0.73,0.36,7.01,2.39,7.01,2.39s-2.73-0.64-3.21-0.48c-0.48,0.16-0.68,0.6-0.28,1.16c0.4,0.56,4.3,2.27,5.86,2.47
			c1.55,0.2,5.58-0.12,6.18,0c0.6,0.12,4.62,1.07,4.62,1.07L403.99,221.72z"/>
		<path class="st21" d="M396.58,383.47h30.76c0,0,1.04-2.63,0-5.5c-1.04-2.87-0.72-4.22-2.47-3.91c-1.75,0.32-2.15,2.15-3.67,1.36
			c-1.51-0.8-2.71-1.51-3.98-0.96c-1.28,0.56-2.82,3.13-8.13,4.28c-5.98,1.3-8.66,1.77-9.64,1.94
			C396.58,381.16,396.58,383.47,396.58,383.47z"/>
		<path class="st22" d="M398.24,381.08c-1.63,0.82-1.66,2.39-1.66,2.39h30.76c0,0,0.38-0.98,0.45-2.39H398.24z"/>
		<g>
			<path class="st27" d="M380.38,116.4l-33.8-8.31c-2.09-0.51-3.37-2.63-2.86-4.72l4.08-16.58c0.51-2.09,2.63-3.37,4.72-2.86
				l33.8,8.31c2.09,0.51,3.37,2.63,2.86,4.72l-4.08,16.58C384.59,115.63,382.48,116.91,380.38,116.4z"/>
			<path class="st12" d="M376.98,93.46l-13.61-3.55l-1.31-0.34l-0.38,1.47l-3.3,12.64c-0.55-0.6-1.34-1.09-2.29-1.33
				c-2.09-0.54-4.1,0.26-4.5,1.79c-0.4,1.53,0.97,3.22,3.05,3.76c2.09,0.54,4.1-0.26,4.5-1.79l3.84-14.73l13.61,3.55l-2.44,9.34
				c-0.55-0.6-1.34-1.09-2.29-1.33c-2.09-0.54-4.1,0.26-4.5,1.79c-0.4,1.53,0.97,3.22,3.05,3.76c2.09,0.54,4.1-0.26,4.5-1.79
				c0.04-0.14,0.04-0.29,0.05-0.43l0.05,0.03l2.88-11.03l0.38-1.47L376.98,93.46z"/>
		</g>
		<g>
			<polygon class="st28" points="494.3,159.93 480.08,150.51 494.3,141.1 508.51,150.51 			"/>
			<polygon class="st29" points="480.08,165.55 494.3,174.97 494.3,159.93 480.08,150.51 			"/>
			<polygon class="st30" points="508.51,165.55 494.3,174.97 494.3,159.93 508.51,150.51 			"/>
		</g>
		<g>
			<polygon class="st28" points="120.52,161.19 103.25,149.75 120.52,138.3 137.79,149.75 			"/>
			<polygon class="st29" points="103.25,168.02 120.52,179.46 120.52,161.19 103.25,149.75 			"/>
			<polygon class="st30" points="137.79,168.02 120.52,179.46 120.52,161.19 137.79,149.75 			"/>
		</g>
		<path class="st31" d="M275.07,195.81c-0.65-4.33-3.18-6.94-7.38-8.01c-0.48-0.12-1.04-0.02-1.46-0.47
			c0.09-0.11,0.16-0.26,0.28-0.34c2.63-1.84,3.71-4.4,3.72-7.56c0.01-4.83-2.73-8.52-7.35-9.84c-2.36-0.67-4.77-0.91-7.21-0.88
			c-0.9,0.01-1.32-0.22-1.36-1.23c-0.09-2.39-0.35-4.77-0.47-7.15c-0.01-0.29-0.06-0.51-0.13-0.69l-5.82,0.43
			c0,0.07-0.01,0.12,0,0.2c0.26,2.49,0.42,4.99,0.67,7.49c0.07,0.7-0.11,1.03-0.82,1.1c-0.9,0.08-1.8,0.16-2.68,0.32
			c-0.95,0.17-1.21-0.19-1.25-1.12c-0.1-2.42-0.33-4.84-0.47-7.27c-0.01-0.15-0.03-0.27-0.06-0.38l-5.57,0.41
			c-0.03,0.15-0.05,0.33-0.03,0.55c0.21,2.26,0.34,4.53,0.53,6.79c0.14,1.72,0.09,1.81-1.56,1.97c-0.16,0.02-0.31,0.02-0.47,0.03
			c-2.81,0.23-5.61,0.47-8.42,0.69c-0.05,0-0.1,0.01-0.15,0.01l0.61,6.29c1.03-0.11,2.06-0.2,3.09-0.26
			c1.94-0.13,3.04,0.72,3.34,2.66c0.2,1.32,0.25,2.65,0.37,3.98c0.65,7.14,1.3,14.28,1.93,21.42c0.14,1.56-0.51,2.33-2.09,2.51
			c-0.85,0.1-1.71,0.18-2.57,0.23c-0.09,1.36-0.3,4.38-0.52,7.11c3.01-0.25,6.05-0.29,9.05-0.67c0.86-0.11,1.12,0.18,1.17,1.07
			c0.12,2.53,0.37,5.05,0.55,7.57l5.96-0.34c0-0.04,0-0.07,0-0.11c-0.24-2.38-0.36-4.76-0.57-7.14c-0.08-0.88,0.09-1.42,1.12-1.43
			c0.78-0.01,1.57-0.11,2.33-0.25c0.9-0.17,1.26,0.12,1.3,1.06c0.12,2.46,0.35,4.92,0.51,7.38c0.01,0.08,0.02,0.14,0.03,0.22l6-0.34
			c0-0.01,0-0.01,0-0.02c-0.22-2.45-0.28-4.92-0.49-7.37c-0.1-1.09,0.28-1.52,1.34-1.68c2.49-0.37,4.91-1.03,7.24-1.99
			c3.47-1.44,6.24-3.64,7.38-7.39C275.43,200.9,275.46,198.35,275.07,195.81z M246.21,188.03c-0.28-3.39-0.58-6.78-0.9-10.16
			c-0.06-0.66,0.05-0.93,0.83-0.99c3.16-0.22,6.32-0.62,9.43,0.33c3.91,1.19,5.29,5.63,2.61,8.31c-1.04,1.04-2.35,1.68-3.45,1.97
			c-2.72,0.9-5.22,1.06-7.72,1.23C246.49,188.76,246.26,188.61,246.21,188.03z M260.82,204.78c-0.78,0.45-1.59,0.84-2.29,1.03
			c-3.36,1.17-6.69,1.33-9.99,1.69c-0.56,0.06-0.78-0.2-0.83-0.72c-0.35-3.78-0.7-7.55-1.06-11.33c-0.05-0.49-0.02-0.8,0.61-0.86
			c3.35-0.3,6.69-0.75,10.07-0.31c1.13,0.15,2.22,0.42,3.26,0.91c2.01,0.94,3.06,2.52,3.12,4.71
			C263.76,202.09,262.71,203.69,260.82,204.78z"/>
		<g>
			<path class="st2" d="M296.77,99.16c3.71,11.85-2.89,24.45-14.74,28.16c-11.85,3.71-24.45-2.89-28.16-14.74
				c-3.71-11.85,2.89-24.45,14.74-28.16C280.45,80.72,293.06,87.31,296.77,99.16z"/>
			<path class="st5" d="M293.27,100.25c3.1,9.92-2.42,20.47-12.34,23.58c-9.92,3.1-20.47-2.42-23.58-12.34
				c-3.1-9.92,2.42-20.47,12.34-23.58C279.62,84.81,290.17,90.34,293.27,100.25z"/>
			
				<ellipse transform="matrix(0.2009 -0.9796 0.9796 0.2009 116.3044 354.3128)" class="st4" cx="275.32" cy="105.87" rx="16.29" ry="16.29"/>
			<path class="st12" d="M283.59,110.56c0.25-1.8-0.41-3.11-1.87-3.99c-0.17-0.1-0.39-0.12-0.5-0.35c0.05-0.04,0.09-0.09,0.14-0.11
				c1.2-0.45,1.9-1.35,2.27-2.61c0.56-1.92-0.06-3.69-1.65-4.72c-0.82-0.53-1.7-0.88-2.62-1.14c-0.34-0.09-0.48-0.23-0.37-0.64
				c0.24-0.96,0.41-1.94,0.64-2.9c0.03-0.12,0.03-0.21,0.03-0.29l-2.25-0.46c-0.01,0.03-0.02,0.05-0.02,0.08
				c-0.19,1.02-0.41,2.04-0.6,3.06c-0.05,0.28-0.16,0.4-0.44,0.35c-0.35-0.07-0.7-0.13-1.05-0.16c-0.38-0.04-0.44-0.21-0.34-0.58
				c0.24-0.98,0.43-1.97,0.65-2.95c0.01-0.06,0.02-0.11,0.02-0.16l-2.15-0.44c-0.03,0.06-0.06,0.13-0.07,0.22
				c-0.18,0.92-0.39,1.84-0.58,2.76c-0.14,0.7-0.17,0.73-0.82,0.62c-0.06-0.01-0.12-0.03-0.18-0.04c-1.09-0.21-2.18-0.42-3.26-0.64
				c-0.02,0-0.04-0.01-0.06-0.01L268,98.03c0.4,0.07,0.8,0.14,1.2,0.23c0.75,0.16,1.07,0.62,0.96,1.42
				c-0.08,0.55-0.21,1.08-0.32,1.63c-0.57,2.91-1.14,5.83-1.72,8.74c-0.13,0.64-0.46,0.87-1.08,0.77c-0.33-0.05-0.67-0.11-1-0.19
				c-0.19,0.53-0.62,1.71-1.01,2.78c1.17,0.23,2.32,0.54,3.5,0.71c0.34,0.05,0.4,0.2,0.32,0.55c-0.24,1.02-0.44,2.05-0.66,3.08
				l2.29,0.51c0-0.02,0.01-0.03,0.01-0.04c0.18-0.97,0.41-1.94,0.6-2.91c0.07-0.36,0.19-0.55,0.59-0.45c0.3,0.08,0.6,0.13,0.91,0.15
				c0.36,0.03,0.46,0.18,0.37,0.57c-0.24,0.99-0.43,2-0.65,3c-0.01,0.03-0.01,0.06-0.01,0.09l2.31,0.52c0,0,0,0,0-0.01
				c0.2-1,0.46-1.99,0.66-2.99c0.09-0.45,0.28-0.57,0.7-0.52c0.98,0.12,1.98,0.12,2.97-0.01c1.48-0.2,2.78-0.77,3.64-2.14
				C283.14,112.62,283.44,111.61,283.59,110.56z M273.57,104.32c0.28-1.38,0.56-2.76,0.82-4.15c0.05-0.27,0.13-0.37,0.43-0.3
				c1.22,0.26,2.46,0.44,3.53,1.16c1.34,0.9,1.36,2.82,0.03,3.6c-0.51,0.3-1.08,0.41-1.53,0.41c-1.13,0.06-2.1-0.15-3.06-0.35
				C273.59,104.64,273.52,104.56,273.57,104.32z M277.17,112.58c-0.35,0.09-0.7,0.16-0.98,0.16c-1.4,0.1-2.68-0.2-3.97-0.41
				c-0.22-0.04-0.27-0.17-0.23-0.38c0.3-1.54,0.6-3.08,0.9-4.63c0.04-0.2,0.08-0.32,0.33-0.27c1.3,0.25,2.62,0.43,3.84,0.97
				c0.41,0.18,0.79,0.41,1.13,0.72c0.65,0.59,0.87,1.34,0.64,2.22C278.59,111.83,278.01,112.35,277.17,112.58z"/>
		</g>
		<g>
			<polygon class="st19" points="182.06,362.31 181.06,375.88 188.59,376.66 188.99,374.36 189.95,363.21 			"/>
			<polygon class="st19" points="230.06,360.6 235.36,374.02 241.85,370.64 237.23,356.37 			"/>
			<path class="st20" d="M166.51,168.64c0,0,1.68-2.99,0.61-6.33c-1.08-3.35-3.83-3.47-5.44-4.3c-1.61-0.84-6.28-1.61-8.37,0.42
				c-2.09,2.03-2.99,3.53-3.83,4c-0.84,0.48-1.55,2.69-0.9,4.84c0.66,2.15,2.39,2.63,2.63,4.36c0.24,1.73,1.49,3.17,3.11,3.83
				c1.61,0.66,3.83-0.18,3.95-0.48C158.39,174.68,166.51,168.64,166.51,168.64z"/>
			<path class="st23" d="M171.61,232.45c0,0,1.12,11.03,5.81,20.36c4.69,9.32,9.23,22.47,9.47,24.15c0.24,1.67-1.43,19.61-0.6,35.03
				c0.84,15.42-3.59,47.46-5.74,51.88c0,0,5.5,3.23,10.76,1.67c0,0,5.02-34.07,7.29-46.26c2.27-12.19,3.59-45.31,3.59-45.31
				s3.35,6.22,4.9,11.36c1.55,5.14,6.58,30.24,13.63,49.37c7.05,19.13,8.01,27.14,8.01,27.14s8.01-1.31,10.88-3.71
				c0,0-10.32-26.14-18.77-63.76c0,0-4.46-24.23-6.69-29.81c-2.23-5.58-19.61-43.51-21.04-44.95
				C191.68,218.18,171.61,232.45,171.61,232.45z"/>
			<path class="st32" d="M158.87,181.08c0,0-5.86,5.86-7.35,9.8c-1.49,3.95,3.35,11.36,5.02,15.36c1.67,4,4.18,9.92,8.61,9.68
				c0,0,3.65,9.03,3.35,12.67c-0.3,3.65-0.3,4.48-0.3,4.48s14.82-2.45,18.83-5.5c4-3.05,8.31-8.31,8.31-8.31s-1.85-0.9-2.45-1.91
				c-0.6-1.02-3.17-7.17-3.17-7.17s11.36-3.65,15.12-5.8c3.77-2.15,4.54-2.57,4.54-2.57l-2.09-4.48c0,0-11.6,4.12-20.08,6.16
				l-3.59-9.15c0,0,4.24,2.21,5.14,2.39c0.9,0.18,1.61,0.18,1.61,0.18s-0.54-7.17-0.18-9.21c0,0-5.72-2.63-9.88-5.74
				c-4.16-3.11-4.34-3.23-5.36-3.41c-1.02-0.18-9.98,0.96-9.98,0.96L158.87,181.08z"/>
			<path class="st24" d="M166.01,179.04c0,0-1.34-2.77-1.37-5.22l-6.59,1.69c0,0,1.18,4.08,0.82,5.58
				c-0.36,1.49,6.34,1.94,7.44,1.02C167.41,181.17,166.01,179.04,166.01,179.04z"/>
			<path class="st19" d="M166.46,167.73c0,0,0.92,10.04-3.95,9.8c-4.86-0.24-7.33-6.06-7.33-6.06c-0.67,0.31-1.52-0.05-2.06-0.56
				c-0.54-0.51-0.82-1.22-1.02-1.94c-0.12-0.43-0.18-0.97,0.16-1.25c0.22-0.18,0.54-0.19,0.8-0.1c0.27,0.09,0.49,0.27,0.71,0.44
				c0.35,0.28,0.7,0.55,1.05,0.83c0.14,0.11,0.3,0.22,0.47,0.19c0.22-0.05,0.31-0.31,0.35-0.53c0.2-1.09,0.16-2.23-0.12-3.3
				c1.87-0.05,3.82-0.05,5.38-1.07c0.42,0.49,1.1,0.7,1.75,0.7c0.65,0,1.28-0.19,1.9-0.38c0.26,0.85,0.59,1.68,0.97,2.47
				C165.7,167.35,166.06,167.83,166.46,167.73z"/>
			<path class="st33" d="M167.45,222.61c7.8-4.4,18.86-9.97,22.52-11.8c-0.16-0.38-0.26-0.62-0.26-0.62s-15.8,5.32-24.57,5.74
				C165.14,215.93,166.46,219.2,167.45,222.61z"/>
			<path class="st33" d="M169.6,205.03c-3.43-7.17-7.89-11.8-7.89-11.8c3.03,4.3,7.17,13.97,7.17,13.97
				c8.85-0.88,18.31-3.71,18.31-3.71L169.6,205.03z"/>
			<path class="st19" d="M207.46,197.66c0,0,2-0.72,2.72-1.88c0.72-1.17,1.88-1.7,2.15-1.52c0.27,0.18-0.06,1.11,0.21,0.99
				c0.27-0.12,4.81-3.41,5.62-3.68c0.81-0.27,1.17,0.09,0.9,0.48c-0.27,0.39-4.21,3.05-4.21,3.05s5.11-2.78,5.68-2.93
				c0.57-0.15,0.75,0.48,0.75,0.72c0,0.24-5.86,3.5-5.86,3.5s3.92-1.61,4.27-1.52c0.36,0.09,0.54,0.36,0.24,0.81
				c-0.3,0.45-4.24,2.12-4.24,2.12s1.85-0.42,2.03-0.27c0.18,0.15,0,0.72-0.48,0.96c-0.48,0.24-1.34,0.87-3.35,1.05
				c-2,0.18-5.07,1.06-5.07,1.06L207.46,197.66z"/>
			<path class="st26" d="M204.4,278.43c1.12-4.98,2.64-15.02-1.84-20.1c-6.1-6.91-11.36-24.05-11.36-24.05
				c2.27,13.75,10.86,28.78,11.34,30.81c0.48,2.03-0.34,8.88-0.34,8.88S203.22,275.86,204.4,278.43z"/>
			<g>
				<path class="st34" d="M180.3,383.47h28.13c0,0,0.67-1.08-2.08-2.39s-7-1.2-14.17-4.3c0,0-1.12-0.32-2.15-1.75
					c-1.04-1.43-2.55-0.24-3.03,0c-0.48,0.24-1.83,0.8-3.35-0.08c-1.51-0.88-2.79-0.56-3.35,0.24c-0.56,0.8-0.64,2.63-0.48,3.11
					C179.98,378.77,180.45,382.35,180.3,383.47z"/>
				<path class="st35" d="M180.3,383.47h28.13c0,0,0.58-0.99-1.79-2.23h-26.4C180.32,382.14,180.36,383.01,180.3,383.47z"/>
			</g>
			<g>
				<path class="st34" d="M234.77,379.5l27.3-6.79c0,0,0.39-1.2-2.6-1.82c-2.99-0.61-7.08,0.53-14.79-0.75c0,0-1.16-0.04-2.51-1.18
					c-1.35-1.14-2.53,0.38-2.94,0.73c-0.41,0.35-1.59,1.22-3.27,0.73c-1.68-0.49-2.84,0.13-3.19,1.04
					c-0.35,0.91,0.02,2.71,0.29,3.13C233.32,375.01,234.65,378.38,234.77,379.5z"/>
				<path class="st35" d="M234.77,379.5l27.3-6.79c0,0,0.32-1.1-2.28-1.73l-25.62,6.37C234.47,378.2,234.72,379.04,234.77,379.5z"/>
			</g>
		</g>
		<g>
			<circle class="st27" cx="187.2" cy="112.67" r="29.65"/>
			<circle class="st36" cx="187.2" cy="112.67" r="24.82"/>
			<circle class="st37" cx="187.2" cy="112.67" r="21.98"/>
			<g>
				<polygon class="st38" points="187.18,91.91 187.18,121.93 200.11,113.04 				"/>
				<polygon class="st39" points="187.18,108.04 187.18,121.93 200.11,113.04 				"/>
				<polygon class="st27" points="187.18,91.91 187.18,121.93 174.24,113.04 				"/>
				<polygon class="st38" points="187.18,108.04 187.18,121.93 174.24,113.04 				"/>
				<g>
					<polygon class="st38" points="187.18,133.44 200.59,115.06 187.18,124.6 					"/>
					<polygon class="st27" points="187.22,133.44 173.8,115.06 187.22,124.6 					"/>
				</g>
			</g>
		</g>
		<g>
			<g>
				<path class="st2" d="M353.72,347.89h-61.38c-1.6,0-2.9-1.3-2.9-2.9V283.6c0-1.6,1.3-2.9,2.9-2.9h61.38c1.6,0,2.9,1.3,2.9,2.9
					v61.38C356.62,346.59,355.33,347.89,353.72,347.89z"/>
				<rect x="295.89" y="287.15" class="st18" width="54.28" height="54.28"/>
				<rect x="299.54" y="290.8" class="st9" width="46.98" height="46.98"/>
				<g>
					<g>
						<path class="st40" d="M300.08,267.67L300.08,267.67c-1.03,0-1.87,0.84-1.87,1.87v11.16h3.75v-11.16
							C301.95,268.51,301.11,267.67,300.08,267.67z"/>
						<path class="st40" d="M311.56,267.67L311.56,267.67c-1.03,0-1.87,0.84-1.87,1.87v11.16h3.75v-11.16
							C313.43,268.51,312.59,267.67,311.56,267.67z"/>
						<path class="st40" d="M323.03,267.67L323.03,267.67c-1.03,0-1.87,0.84-1.87,1.87v11.16h3.75v-11.16
							C324.91,268.51,324.07,267.67,323.03,267.67z"/>
						<path class="st40" d="M334.51,267.67L334.51,267.67c-1.03,0-1.87,0.84-1.87,1.87v11.16h3.75v-11.16
							C336.38,268.51,335.54,267.67,334.51,267.67z"/>
						<path class="st40" d="M345.98,267.67L345.98,267.67c-1.03,0-1.87,0.84-1.87,1.87v11.16h3.75v-11.16
							C347.86,268.51,347.02,267.67,345.98,267.67z"/>
					</g>
					<g>
						<path class="st40" d="M345.98,360.92L345.98,360.92c1.03,0,1.87-0.84,1.87-1.87v-11.16h-3.75v11.16
							C344.11,360.08,344.95,360.92,345.98,360.92z"/>
						<path class="st40" d="M334.51,360.92L334.51,360.92c1.03,0,1.87-0.84,1.87-1.87v-11.16h-3.75v11.16
							C332.64,360.08,333.47,360.92,334.51,360.92z"/>
						<path class="st40" d="M323.03,360.92L323.03,360.92c1.03,0,1.87-0.84,1.87-1.87v-11.16h-3.75v11.16
							C321.16,360.08,322,360.92,323.03,360.92z"/>
						<path class="st40" d="M311.56,360.92L311.56,360.92c1.03,0,1.87-0.84,1.87-1.87v-11.16h-3.75v11.16
							C309.68,360.08,310.52,360.92,311.56,360.92z"/>
						<path class="st40" d="M300.08,360.92L300.08,360.92c1.03,0,1.87-0.84,1.87-1.87v-11.16h-3.75v11.16
							C298.21,360.08,299.05,360.92,300.08,360.92z"/>
					</g>
					<g>
						<path class="st40" d="M369.66,291.34L369.66,291.34c0-1.03-0.84-1.87-1.87-1.87h-11.16v3.75h11.16
							C368.82,293.21,369.66,292.37,369.66,291.34z"/>
						<path class="st40" d="M369.66,302.82L369.66,302.82c0-1.03-0.84-1.87-1.87-1.87h-11.16v3.75h11.16
							C368.82,304.69,369.66,303.85,369.66,302.82z"/>
						<path class="st40" d="M369.66,314.29L369.66,314.29c0-1.03-0.84-1.87-1.87-1.87h-11.16v3.75h11.16
							C368.82,316.17,369.66,315.33,369.66,314.29z"/>
						<path class="st40" d="M369.66,325.77L369.66,325.77c0-1.03-0.84-1.87-1.87-1.87h-11.16v3.75h11.16
							C368.82,327.64,369.66,326.8,369.66,325.77z"/>
						<path class="st40" d="M369.66,337.25L369.66,337.25c0-1.03-0.84-1.87-1.87-1.87h-11.16v3.75h11.16
							C368.82,339.12,369.66,338.28,369.66,337.25z"/>
					</g>
					<g>
						<path class="st40" d="M276.41,337.25L276.41,337.25c0,1.03,0.84,1.87,1.87,1.87h11.16v-3.75h-11.16
							C277.25,335.37,276.41,336.21,276.41,337.25z"/>
						<path class="st40" d="M276.41,325.77L276.41,325.77c0,1.03,0.84,1.87,1.87,1.87h11.16v-3.75h-11.16
							C277.25,323.9,276.41,324.73,276.41,325.77z"/>
						<path class="st40" d="M276.41,314.29L276.41,314.29c0,1.03,0.84,1.87,1.87,1.87h11.16v-3.75h-11.16
							C277.25,312.42,276.41,313.26,276.41,314.29z"/>
						<path class="st40" d="M276.41,302.82L276.41,302.82c0,1.03,0.84,1.87,1.87,1.87h11.16v-3.75h-11.16
							C277.25,300.94,276.41,301.78,276.41,302.82z"/>
						<path class="st40" d="M276.41,291.34L276.41,291.34c0,1.03,0.84,1.87,1.87,1.87h11.16v-3.75h-11.16
							C277.25,289.47,276.41,290.31,276.41,291.34z"/>
					</g>
				</g>
				<g>
					<rect x="332.64" y="278" class="st41" width="3.75" height="2.7"/>
					<rect x="321.16" y="278" class="st41" width="3.75" height="2.7"/>
					<rect x="298.21" y="278" class="st41" width="3.75" height="2.7"/>
					<rect x="309.68" y="278" class="st41" width="3.75" height="2.7"/>
					<rect x="356.62" y="289.47" class="st41" width="2.7" height="3.75"/>
					<rect x="356.62" y="335.37" class="st41" width="2.7" height="3.75"/>
					<rect x="356.62" y="300.94" class="st41" width="2.7" height="3.75"/>
					<rect x="356.62" y="312.42" class="st41" width="2.7" height="3.75"/>
					<rect x="356.62" y="323.9" class="st41" width="2.7" height="3.75"/>
					<rect x="298.21" y="347.89" class="st41" width="3.75" height="2.7"/>
					<rect x="286.74" y="312.42" class="st41" width="2.7" height="3.75"/>
					<rect x="286.74" y="300.94" class="st41" width="2.7" height="3.75"/>
					<rect x="286.74" y="289.47" class="st41" width="2.7" height="3.75"/>
					<rect x="286.74" y="323.9" class="st41" width="2.7" height="3.75"/>
					<rect x="286.74" y="335.37" class="st41" width="2.7" height="3.75"/>
					<rect x="344.11" y="278" class="st41" width="3.75" height="2.7"/>
					<rect x="321.16" y="347.89" class="st41" width="3.75" height="2.7"/>
					<rect x="332.64" y="347.89" class="st41" width="3.75" height="2.7"/>
					<rect x="309.68" y="347.89" class="st41" width="3.75" height="2.7"/>
					<rect x="344.11" y="347.89" class="st41" width="3.75" height="2.7"/>
				</g>
			</g>
			<g>
				<g>
					<path class="st2" d="M406.87,283.35h-15.62c-0.12,0-0.23,0.06-0.3,0.15l-8.33,11.32h-10.81c-0.21,0-0.38,0.17-0.38,0.38
						s0.17,0.38,0.38,0.38h11h11.72c0.21,0,0.38-0.17,0.38-0.38s-0.17-0.38-0.38-0.38h-10.97l7.89-10.72h15.43
						c0.21,0,0.38-0.17,0.38-0.38S407.08,283.35,406.87,283.35z"/>
					<path class="st2" d="M400.58,307.54c0.21,0,0.38-0.17,0.38-0.38c0-0.21-0.17-0.38-0.38-0.38h-28.77
						c-0.21,0-0.38,0.17-0.38,0.38c0,0.21,0.17,0.38,0.38,0.38H400.58z"/>
					<path class="st2" d="M403.29,326.23H389.4l-4.35-7.38c-0.07-0.12-0.19-0.19-0.33-0.19h-14.35c-0.21,0-0.38,0.17-0.38,0.38
						s0.17,0.38,0.38,0.38h14.13l4.35,7.38c0.07,0.12,0.19,0.19,0.33,0.19h14.11c0.21,0,0.38-0.17,0.38-0.38
						S403.5,326.23,403.29,326.23z"/>
					<path class="st2" d="M396.19,335.95H375c-0.21,0-0.38,0.17-0.38,0.38s0.17,0.38,0.38,0.38h21.2c0.21,0,0.38-0.17,0.38-0.38
						S396.4,335.95,396.19,335.95z"/>
				</g>
				<g>
					<path class="st2" d="M273.06,296.43c0.11,0,0.19-0.08,0.19-0.19c0-0.1-0.08-0.19-0.19-0.19h-14.71l-3.77-6.68
						c-0.03-0.06-0.1-0.1-0.16-0.1h-6.69c-0.1,0-0.19,0.08-0.19,0.19c0,0.11,0.08,0.19,0.19,0.19h6.58l3.61,6.4h-16.83l-3.89-2.99
						c-0.08-0.06-0.2-0.05-0.27,0.04c-0.06,0.08-0.05,0.2,0.04,0.26l3.95,3.03c0.03,0.03,0.07,0.04,0.12,0.04H273.06z"/>
					<path class="st2" d="M273.06,309.56h-23.75c-0.1,0-0.19,0.08-0.19,0.19c0,0.1,0.08,0.19,0.19,0.19h23.75
						c0.11,0,0.19-0.08,0.19-0.19C273.25,309.64,273.17,309.56,273.06,309.56z"/>
					<path class="st2" d="M273.06,324.07h-17.79c-0.11,0-0.19,0.08-0.19,0.19v7.1h-10.25c-0.1,0-0.19,0.08-0.19,0.19
						c0,0.1,0.08,0.19,0.19,0.19h10.44c0.1,0,0.19-0.08,0.19-0.19v-7.1h17.6c0.11,0,0.19-0.08,0.19-0.19
						S273.17,324.07,273.06,324.07z"/>
					<path class="st2" d="M271.39,341.24h-17.91c-0.1,0-0.19,0.08-0.19,0.19c0,0.1,0.08,0.19,0.19,0.19h17.91
						c0.1,0,0.19-0.08,0.19-0.19C271.58,341.33,271.49,341.24,271.39,341.24z"/>
				</g>
				<g>
					<path class="st9" d="M410.62,283.73c0,1.01-0.82,1.83-1.83,1.83c-1.01,0-1.83-0.82-1.83-1.83c0-1.01,0.82-1.83,1.83-1.83
						C409.8,281.9,410.62,282.72,410.62,283.73z"/>
					<path class="st9" d="M398.19,295.21c0,1.01-0.82,1.83-1.83,1.83c-1.01,0-1.83-0.82-1.83-1.83c0-1.01,0.82-1.83,1.83-1.83
						C397.37,293.37,398.19,294.19,398.19,295.21z"/>
					<path class="st9" d="M404.24,307.12c0,1.01-0.82,1.83-1.83,1.83c-1.01,0-1.83-0.82-1.83-1.83c0-1.01,0.82-1.83,1.83-1.83
						C403.42,305.29,404.24,306.11,404.24,307.12z"/>
					<circle class="st9" cx="398.03" cy="336.33" r="1.83"/>
					<path class="st9" d="M406.95,326.61c0,1.01-0.82,1.83-1.83,1.83c-1.01,0-1.83-0.82-1.83-1.83c0-1.01,0.82-1.83,1.83-1.83
						C406.13,324.77,406.95,325.59,406.95,326.61z"/>
				</g>
				<g>
					<path class="st9" d="M237.58,291.95c0,1.01-0.82,1.83-1.83,1.83c-1.01,0-1.83-0.82-1.83-1.83c0-1.01,0.82-1.83,1.83-1.83
						C236.76,290.12,237.58,290.94,237.58,291.95z"/>
					<path class="st9" d="M247.72,289.47c0,1.01-0.82,1.83-1.83,1.83c-1.01,0-1.83-0.82-1.83-1.83c0-1.01,0.82-1.83,1.83-1.83
						C246.9,287.63,247.72,288.45,247.72,289.47z"/>
					<path class="st9" d="M244.83,331.55c0,1.01-0.82,1.83-1.83,1.83c-1.01,0-1.83-0.82-1.83-1.83c0-1.01,0.82-1.83,1.83-1.83
						C244.01,329.71,244.83,330.53,244.83,331.55z"/>
					<path class="st9" d="M253.48,341.43c0,1.01-0.82,1.83-1.83,1.83s-1.83-0.82-1.83-1.83c0-1.01,0.82-1.83,1.83-1.83
						S253.48,340.42,253.48,341.43z"/>
					<circle class="st9" cx="247.68" cy="309.75" r="1.83"/>
				</g>
			</g>
		</g>
		<text transform="matrix(1 0 0 1 302.7303 321.0676)" class="st12 st42 st43">NFT</text>
	</g>
</g>
</svg>
