<?xml version="1.0" encoding="utf-8"?>
<!-- Generator: Adobe Illustrator 24.3.0, SVG Export Plug-In . SVG Version: 6.00 Build 0)  -->
<svg version="1.1" id="圖層_1" xmlns="http://www.w3.org/2000/svg" xmlns:xlink="http://www.w3.org/1999/xlink" x="0px" y="0px"
	 viewBox="0 0 90.31 32.67" style="enable-background:new 0 0 90.31 32.67;" xml:space="preserve">
<style type="text/css">
	.st0{fill:#0F151B;}
	.st1{fill:none;stroke:#E6B31C;stroke-width:4;stroke-miterlimit:10;}
	.st2{fill:none;stroke:#E6B31C;stroke-miterlimit:10;}
	.st3{fill:#E6B31C;}
</style>
<rect x="-0.24" y="-1" class="st0" width="91.24" height="33.86"/>
<g>
	<circle class="st1" cx="14.97" cy="16.2" r="8.79"/>
	<rect x="16.88" y="13.25" class="st0" width="9.95" height="5.9"/>
	<circle class="st2" cx="14.97" cy="16.2" r="12.79"/>
	<rect x="13" y="0.46" class="st3" width="0.98" height="2.95"/>
	<rect x="15.95" y="0.46" class="st3" width="0.98" height="2.95"/>
	<rect x="13" y="28.99" class="st3" width="0.98" height="2.95"/>
	<rect x="15.95" y="28.99" class="st3" width="0.98" height="2.95"/>
</g>
<path class="st3" d="M31.77,26.53h1.52l0.01-8.99c0,0,0.33-1.27,1.2-1.27c0.87,0,5.46,0,5.46,0v-1.01h-5.81c0,0-2.31-0.19-2.31,0.88
	L31.77,26.53z"/>
<path class="st3" d="M42.29,15.33h1.93c0,0,2.13,9.86,3.73,9.93c0.67,0.03,3.72-8.79,3.89-9.93h1.43c0,0-3.92,16.46-9.25,16.46
	v-1.87c0,0,2.13,0,3.13-3C47.16,26.93,43.36,21.53,42.29,15.33z"/>
<path class="st3" d="M55.75,15.87h1.38v1.27c0,0,1.75-1.94,4.48-1.94c2.73,0,4.2,1.53,4.2,6.06s-1.07,5.86-4,5.86
	c-2.93,0-4.73-1.2-4.73-1.2l0.07,5.93h-1.4V15.87z M57.22,18.6v6.5c0,0,2.06,0.73,5.03,0.75s2.44-5.25,2.44-5.25s-0.27-3.2-2.66-3.8
	C59.62,16.2,57.22,18.6,57.22,18.6z"/>
<path class="st3" d="M68.01,15.87v1.26h2.49v7.96c0,0-0.15,1.97,2.44,2.04h2.46v-1.36l-1.86-0.04c0,0-1.88,0.22-1.84-1.59
	c0.04-1.81,0-7.01,0-7.01l3.7,0v-1.27h-3.7v-4.01l-1.17,0.01v4H68.01z"/>
<path class="st3" d="M82.8,14.87c0,0,5.33-0.47,5.4,4.86v2.18c0,0,0.47,5.01-5.4,5.01c-5.53,0-5.2-4.8-5.2-4.8l-0.02-2.46
	C77.58,19.67,77.14,14.87,82.8,14.87z M83,16.13c-2.25,0-4.07,2.13-4.07,4.76s1.82,4.76,4.07,4.76s4.07-2.13,4.07-4.76
	S85.25,16.13,83,16.13z"/>
</svg>
