<?xml version="1.0" encoding="utf-8"?>
<!-- Generator: Adobe Illustrator 24.3.0, SVG Export Plug-In . SVG Version: 6.00 Build 0)  -->
<svg version="1.1" xmlns="http://www.w3.org/2000/svg" xmlns:xlink="http://www.w3.org/1999/xlink" x="0px" y="0px"
	 viewBox="0 0 87 32" style="enable-background:new 0 0 87 32;" xml:space="preserve">
<style type="text/css">
	.st0{fill:#0F151B;}
	.st1{fill:#E6B31C;}
	.st2{fill:none;stroke:#E6B31C;stroke-width:4;stroke-miterlimit:10;}
	.st3{fill:none;stroke:#E6B31C;stroke-miterlimit:10;}
</style>
<g id="圖層_2">
	<rect class="st0" width="87" height="32"/>
</g>
<g id="圖層_1">
	<g>
		<path class="st1" d="M30.49,17.1c0-1.99-0.02-2.95-0.03-3.49h1.67c0.03,0.39,0.06,1.29,0.06,2.76c0.71-1.84,2.3-2.98,4.4-3.06
			v1.76c-2.65,0.13-4.4,1.76-4.4,4.9v6.47h-1.71V17.1z"/>
		<path class="st1" d="M40.04,13.61c2.35,6.79,3.49,9.99,3.88,11.34h0.03c0.47-1.51,1.44-4.47,3.75-11.34h1.75l-4.73,13.5
			c-1.33,3.78-2.28,4.67-4.73,4.67c-0.43,0-0.82-0.03-1.27-0.08v-1.58c0.36,0.05,0.72,0.07,1.11,0.07c1.74,0,2.35-0.81,3.21-3.23
			l-4.85-13.35H40.04z"/>
		<path class="st1" d="M53.7,24.68v6.84H52V16.75c0-1.05,0-2.16-0.03-3.14h1.67c0.05,0.46,0.06,1.23,0.06,2.17
			c0.75-1.43,2.11-2.48,4.37-2.48c3,0,5.12,2.51,5.12,6.39c0,4.6-2.47,7.05-5.57,7.05C55.45,26.74,54.31,25.8,53.7,24.68z
			 M61.41,19.76c0-2.86-1.35-4.92-3.72-4.92c-2.9,0-4.08,1.83-4.08,5.14c0,3.25,0.94,5.25,3.9,5.25
			C60.03,25.23,61.41,23.13,61.41,19.76z"/>
		<path class="st1" d="M64.45,13.61h2.31v-3.9h1.71v3.9h2.95v1.48h-2.95v7.96c0,1.35,0.31,2.09,1.5,2.09c0.35,0,0.85-0.02,1.24-0.13
			v1.38c-0.49,0.19-1.17,0.23-1.74,0.23c-1.8,0-2.71-0.92-2.71-3.01v-8.52h-2.31V13.61z"/>
		<path class="st1" d="M84.43,20c0,3.62-2.04,6.74-5.91,6.74c-3.56,0-5.74-2.84-5.74-6.71c0-3.72,2.09-6.73,5.88-6.73
			C82.14,13.31,84.43,15.97,84.43,20z M74.56,20.02c0,2.94,1.53,5.22,4.06,5.22c2.58,0,4.03-2.13,4.03-5.21
			c0-2.96-1.44-5.22-4.08-5.22C75.89,14.81,74.56,17.02,74.56,20.02z"/>
	</g>
	<g>
		<circle class="st2" cx="15.21" cy="16.01" r="8.79"/>
		<rect x="17.13" y="13.06" class="st0" width="9.95" height="5.9"/>
		<circle class="st3" cx="15.21" cy="16.01" r="12.79"/>
		<rect x="13.25" y="0.27" class="st1" width="0.98" height="2.95"/>
		<rect x="16.2" y="0.27" class="st1" width="0.98" height="2.95"/>
		<rect x="13.25" y="28.8" class="st1" width="0.98" height="2.95"/>
		<rect x="16.2" y="28.8" class="st1" width="0.98" height="2.95"/>
	</g>
</g>
</svg>
