<svg id="Capa_1" enable-background="new 0 0 512 512" height="512" viewBox="0 0 512 512" width="512" xmlns="http://www.w3.org/2000/svg"><g><g><g><g><path d="m0 352c0 24.813 20.187 45 45 45h422c24.813 0 45-20.187 45-45v-27h-512z"/></g></g><g><g><path d="m396 482h-32.791l-4.262-5.327c-11.685-14.606-19.961-31.638-24.341-49.673h-157.213c-4.379 18.035-12.655 35.067-24.341 49.673l-4.261 5.327h-32.791c-8.284 0-15 6.716-15 15s6.716 15 15 15h280c8.284 0 15-6.716 15-15s-6.716-15-15-15z"/></g></g></g><g><path d="m86.481 163.23h34.627c.137-23.385.227-45.942.202-61.03-8.584 14.472-21.586 37.31-34.829 61.03z"/><path d="m382.287 163.23h34.627c.137-23.385.226-45.941.202-61.03-8.585 14.472-21.586 37.31-34.829 61.03z"/><path d="m256 87.501c-14.709 0-26.675 11.967-26.675 26.676v66.648c0 14.709 11.966 26.676 26.675 26.676s26.675-11.967 26.675-26.676v-66.648c0-14.709-11.966-26.676-26.675-26.676z"/><path d="m467 0h-422c-24.813 0-45 20.187-45 45v250h512v-250c0-24.813-20.187-45-45-45zm-311.806 193.23h-4.28c-.098 13.256-.188 23.999-.234 29.4-.071 8.24-6.773 14.87-14.997 14.871-.044 0-.087 0-.132-.001-8.284-.071-14.941-6.845-14.87-15.128.077-8.899.156-18.819.23-29.143h-59.911c-5.307 0-10.219-2.804-12.917-7.374-2.698-4.569-2.78-10.226-.217-14.872 8.437-15.293 50.963-92.119 59.608-102.727 7.343-9.009 17.271-12.672 26.549-9.797 9.382 2.905 16.047 12.009 16.98 23.191.449 5.39.327 45.105.111 81.578h4.08c8.284 0 15 6.716 15 15s-6.716 15.002-15 15.002zm157.481-12.404c0 31.251-25.424 56.676-56.675 56.676s-56.675-25.425-56.675-56.676v-66.648c0-31.251 25.424-56.676 56.675-56.676s56.675 25.425 56.675 56.676zm138.325 12.404h-4.281c-.098 13.256-.188 23.999-.234 29.4-.071 8.24-6.773 14.87-14.997 14.871-.044 0-.087 0-.132-.001-8.284-.071-14.941-6.845-14.87-15.128.077-8.899.156-18.819.23-29.143h-59.911c-5.307 0-10.219-2.804-12.917-7.374-2.698-4.569-2.78-10.225-.217-14.872 8.437-15.293 50.962-92.119 59.609-102.727 7.342-9.011 17.268-12.673 26.549-9.797 9.383 2.905 16.047 12.009 16.979 23.192.449 5.389.328 45.104.111 81.577h4.081c8.284 0 15 6.716 15 15s-6.716 15.002-15 15.002z"/></g></g></svg>