<svg width="64" height="52" viewBox="0 0 64 52" fill="none" xmlns="http://www.w3.org/2000/svg">
<g clip-path="url(#clip0)">
<path d="M41 10C36.6916 9.93851 32.5348 11.5886 29.4415 14.5881C26.3482 17.5877 24.5711 21.6918 24.5 26C24.5711 30.3082 26.3482 34.4123 29.4415 37.4119C32.5348 40.4115 36.6916 42.0615 41 42C45.3084 42.0615 49.4652 40.4115 52.5585 37.4119C55.6518 34.4123 57.4289 30.3082 57.5 26C57.4289 21.6918 55.6518 17.5877 52.5585 14.5881C49.4652 11.5886 45.3084 9.93851 41 10ZM41 40C37.222 40.0616 33.5739 38.6223 30.8556 35.9978C28.1374 33.3733 26.571 29.7778 26.5 26C26.571 22.2222 28.1374 18.6268 30.8556 16.0023C33.5739 13.3778 37.222 11.9384 41 12C44.778 11.9384 48.4261 13.3778 51.1444 16.0023C53.8626 18.6268 55.429 22.2222 55.5 26C55.429 29.7778 53.8626 33.3733 51.1444 35.9978C48.4261 38.6223 44.778 40.0616 41 40Z" fill="#F0B90B"/>
<path d="M7.5 15C7.5 14.7348 7.60536 14.4804 7.79289 14.2929C7.98043 14.1054 8.23478 14 8.5 14H26.5C26.7652 14 27.0196 14.1054 27.2071 14.2929C27.3946 14.4804 27.5 14.7348 27.5 15C27.5 15.2652 27.3946 15.5196 27.2071 15.7071C27.0196 15.8946 26.7652 16 26.5 16H8.5C8.23478 16 7.98043 15.8946 7.79289 15.7071C7.60536 15.5196 7.5 15.2652 7.5 15Z" fill="#F0B90B"/>
<path d="M24.5 23C24.5 23.2652 24.3946 23.5196 24.2071 23.7071C24.0196 23.8946 23.7652 24 23.5 24H15.5C15.2348 24 14.9804 23.8946 14.7929 23.7071C14.6054 23.5196 14.5 23.2652 14.5 23C14.5 22.7348 14.6054 22.4804 14.7929 22.2929C14.9804 22.1054 15.2348 22 15.5 22H23.5C23.7652 22 24.0196 22.1054 24.2071 22.2929C24.3946 22.4804 24.5 22.7348 24.5 23Z" fill="#F0B90B"/>
<path d="M7.5 39C7.23478 39 6.98043 38.8946 6.79289 38.7071C6.60536 38.5196 6.5 38.2652 6.5 38C6.5 37.7348 6.60536 37.4804 6.79289 37.2929C6.98043 37.1054 7.23478 37 7.5 37H27.5C27.7652 37 28.0196 37.1054 28.2071 37.2929C28.3946 37.4804 28.5 37.7348 28.5 38C28.5 38.2652 28.3946 38.5196 28.2071 38.7071C28.0196 38.8946 27.7652 39 27.5 39H7.5Z" fill="#F0B90B"/>
<path d="M24.5 30C24.5 30.2652 24.3946 30.5196 24.2071 30.7071C24.0196 30.8946 23.7652 31 23.5 31H11.5C11.2348 31 10.9804 30.8946 10.7929 30.7071C10.6054 30.5196 10.5 30.2652 10.5 30C10.5 29.7348 10.6054 29.4804 10.7929 29.2929C10.9804 29.1054 11.2348 29 11.5 29H23.5C23.7652 29 24.0196 29.1054 24.2071 29.2929C24.3946 29.4804 24.5 29.7348 24.5 30Z" fill="#F0B90B"/>
<path d="M41.5939 34C43.6028 34 45.1202 33.4121 46.4214 32.319C46.7609 32.0338 46.7756 31.5271 46.4855 31.1917C46.1699 30.8267 45.6167 30.8046 45.2294 31.0924C44.2224 31.8408 43.0611 32.2714 41.678 32.2714C38.2492 32.2714 35.9984 29.8261 35.9984 25.9684C35.9984 22.1528 38.2492 19.7075 41.7201 19.7075C42.8762 19.7075 43.9189 20.0738 44.7603 20.6402C45.1571 20.9073 45.7047 20.8867 46.021 20.5279C46.3214 20.187 46.303 19.6653 45.9395 19.3927C44.8997 18.6126 43.4628 18 41.699 18C37.1343 18 34 21.0988 34 26.0316C34 30.9855 37.1764 34 41.5939 34Z" fill="#F0B90B"/>
</g>
<defs>
<clipPath id="clip0">
<rect width="64" height="52" fill="white"/>
</clipPath>
</defs>
</svg>